<svg id="Layer_1" data-name="Layer 1" xmlns="http://www.w3.org/2000/svg" viewBox="0 0 732.37 732.37"><defs><style>.cls-1{fill:#887b86;}</style></defs><path class="cls-1" d="M-38.09,29.53H-15.9v22.2H-38.09V96.11h-22.2V29.53Zm0,66.58h-22.2v88.78H-15.9v-22.2H-38.09Zm0,111h-22.2v22.19h22.2Zm-22.2,66.58V451.2h22.2v44.39H-15.9V429H-38.09V406.82H-15.9V384.63H-38.09V318.05H-15.9V273.66H-60.29Zm0,244.12V540h22.2v-22.2Zm22.2,44.39h-22.2v22.19h22.2Zm-22.2,44.39v111h0v44.39H-15.9V739.72H-38.09v-22.2h0V628.75H-15.9V606.56H-60.29Zm22.2-44.39H-15.9V540H-38.09ZM-15.9,51.73H6.29V29.53H-15.9Zm0,44.38V140.5H6.29V73.92H-15.9Zm0,88.78H6.29v-22.2H-15.9Zm0,44.38H6.29V207.08H-15.9Zm0,66.58H6.29V251.47H-15.9Zm0,88.78H6.29V318.05H-15.9Zm0,88.77H6.29V451.2H-15.9Zm0,88.77H6.29V517.78H-15.9Zm0,66.58H6.29V606.56H-15.9Zm0,88.77H6.29V650.94H-15.9Zm0,44.39H6.29V739.72H-15.9ZM50.68,51.73H72.87V96.11H95.06V29.53H6.29v22.2H50.68Zm0,88.77V73.92H6.29V140.5H50.68Zm0,44.39H95.06V96.11H72.87v66.58H6.29v22.2H50.68ZM28.49,517.78H6.29V540H50.68v-22.2Zm22.19,66.58V562.17H6.29v22.19H50.68Zm0,133.16V650.94H6.29v66.58H50.68Zm0-488.25V207.08H28.49v44.39H6.29v22.19H50.68V251.47H72.87v-22.2ZM72.87,495.59H50.68v22.19H72.87ZM50.68,562.17H72.87V540H50.68Zm0,44.39H6.29v22.19H72.87v88.77h0v22.2H6.29v22.19H95.06V717.52h0v-111H50.68ZM95.06,207.08H72.87v22.19H95.06ZM72.87,295.85v22.2H95.06v-22.2Zm0,88.78v-22.2H95.06V340.24H50.68V318.05H28.49v-22.2H6.29V473.4H50.68V451.2H28.49V429H50.68V406.82H28.49V362.43H50.68v44.39H95.06V429h22.2V384.63H72.87Zm0,44.38V451.2H95.06V429ZM95.06,473.4H72.87v22.19H95.06Zm0-244.13v22.2H72.87v22.19H95.06v22.19h22.2V251.47h22.19v-22.2H95.06Zm0,111h22.2V318.05H95.06Zm0,111v22.2h44.39V429H117.26V451.2Zm22.2,44.39H95.06v22.19H72.87V540h66.58v-22.2H117.26Zm0,66.58H72.87v22.19h44.39Zm0-488.25h22.19V51.73H117.26Zm0,66.58h22.19V118.31H117.26Zm0,44.39h22.19v-22.2H117.26Zm22.19,133.16v-22.2H117.26v22.2Zm-22.19,66.58h22.19v-22.2H117.26Zm0,221.93h22.19v-22.2H117.26Zm0,66.58h22.19v-22.2H117.26Zm0,44.38h22.19V695.33H117.26Zm0,44.39h22.19V739.72H117.26Zm22.19-688h22.19V51.73H139.45Zm0,66.58v22.19h22.19V140.5Zm22.19,66.58H139.45v22.19h22.19Zm-22.19,44.39v22.19h22.19V251.47ZM161.64,473.4H139.45v22.19h22.19Zm0,133.16h22.2v-22.2H139.45v44.39h22.19Zm0-577v22.2h22.2V73.92H206V29.53H161.64Zm22.2,44.39h-22.2V96.11H139.45v22.2h44.39v44.38H206V96.11H183.84Zm-22.2,111h22.2v-22.2h-22.2Zm22.2,88.77h-22.2v22.19h22.2Zm-22.2,133.16H139.45V451.2h22.19V429h22.2V406.82Zm0,111v44.39h22.2V540H206v-22.2H161.64Zm0,133.16H139.45v22.2h44.39v-22.2Zm22.2-310.7h-22.2V295.85H139.45v88.78h22.19v-22.2h22.2v44.39H206v-111H183.84Zm0,155.35H206V429H183.84Zm0,88.77H206V562.17H183.84Zm0,111H139.45v66.58h44.39v-22.2H206V717.52h0V673.14H183.84ZM206,29.53v22.2h44.39V29.53H206Zm0,44.39V96.11h22.19v22.2h22.2V73.92H206Zm0,88.77v22.2h22.19v-22.2Zm0,88.78v22.19h22.19V251.47Zm0,66.58h22.19v-22.2H206Zm0,88.77h22.19V384.63H206ZM206,429V451.2h22.19V429Zm0,66.58v22.19h22.19V540h22.2V495.59H206Zm0,111h22.19V540H206Zm22.19,44.38H206v22.2h22.19ZM206,761.91h44.39V739.72h-22.2v-22.2H206Zm22.19-554.83H206v22.19h22.19v22.19h22.2V184.89h-22.2Zm0,88.77h22.2V273.66h-22.2Zm22.2,44.39V318.05h-22.2v22.19Zm-22.2,44.39h22.2v-22.2h-22.2Zm0,88.77h22.2V451.2h-22.2Zm0,155.35h22.2V606.56h-22.2Zm0,88.77h22.2V695.33h-22.2Zm22.2-554.83v22.2h22.19v-22.2Zm22.19,44.39H250.42v22.19h22.19ZM294.8,29.53H250.42V96.11h22.19V73.92H317V51.73H294.8ZM272.61,517.78H294.8V495.59H272.61Zm22.19,44.39V540H250.42v22.19H294.8Zm0,44.39h44.39V517.78H317v66.58H294.8ZM317,295.85V273.66h22.19V251.47h22.19v66.58h22.19v44.38H361.38v22.2h22.19v22.19H317V429h22.19V451.2H317v22.2H272.61V451.2H250.42V384.63H294.8v-22.2H250.42v-111h22.19v22.19H294.8v22.19H317v66.58h22.19V295.85Zm-22.2,111H272.61V451.2H294.8ZM339.19,29.53H317v22.2h22.19V73.92H317V96.11H250.42V140.5h22.19V118.31H294.8V140.5H272.61v22.19H294.8v22.2H272.61v22.19H294.8V184.89H317v44.38H294.8v44.39H317v-22.2h22.19V184.89H317v-22.2h22.19V140.5h22.19V118.31h22.19V96.11h0V29.53H339.19Zm0,155.36h22.19v-22.2H339.19Zm0,532.63V695.33h22.19V606.56H339.19v22.19H317v22.19h22.19v22.2H317v-22.2H294.8V628.75H272.61V606.56H250.42v66.58h22.19v44.38H294.8v22.2H272.61v22.19h66.58v-22.2h44.38V717.52H339.19Zm44.38-554.83V140.5H361.38v22.19Zm0,44.39V184.89H361.38v22.19ZM361.38,473.4h22.19V451.2H361.38Zm0,44.38h22.19V495.59H361.38Zm0,66.58h22.19V562.17H361.38ZM405.77,51.73H383.58V96.11h22.19Zm0,554.83H383.58v22.19h22.19v22.19H383.58v22.2H428V628.75H405.77Zm0-510.45H383.58v88.78h22.19v22.19H383.58v44.39h22.19v44.38H383.58v88.78h22.19v22.19H383.58V429h22.19V451.2H383.58v44.39H428V429H405.77V406.82H428V362.43H405.77V340.24H428V184.89H405.77V118.31H428V96.11Zm0,443.87H383.58v66.58H428V540Zm0,177.54H383.58v22.19h22.19v22.2H428V695.33H405.77Zm44.38-510.44h22.2V184.89h-22.2v-22.2H428v44.39Zm0,44.39H428v44.38h22.19ZM428,340.24v44.39h22.19V340.24Zm22.19,111H428v22.2h22.19ZM428,739.71h22.19V717.52H428ZM450.15,73.92h22.2V96.11h22.19V51.73H472.35V29.53H428v22.2h22.19Zm0,310.71v22.19h22.2V384.63Zm0,133.15h44.39V495.59H450.15ZM494.54,96.11H472.35v22.2h22.19Zm-22.19,88.78h22.19V140.5H472.35V118.31h-22.2V73.92H428V140.5h22.19v22.19h22.2Zm22.19,22.19H472.35v44.39h44.38v-22.2H494.54ZM472.35,340.24h22.19V318.05H472.35Zm22.19,22.19H472.35v22.2h22.19Zm0,332.9H450.15v22.19h22.2v44.39h44.38V717.52H494.54Zm0-377.28h22.19V273.66H494.54Zm0,44.38h22.19V340.24H494.54Zm0,44.39H472.35V429h22.19V451.2h22.19V384.63H494.54Zm0,155.35H472.35V540H428v22.19h22.19v22.19h22.2v22.2h-22.2v22.19h22.2v44.39h44.38v-22.2H494.54V584.36h22.19V540H494.54Zm44.39-288.51h22.19V229.27H516.73v88.78h22.2v44.38h-22.2V429h44.39V406.82H538.93V384.63h22.19v-22.2h22.19v44.39h22.2V340.24H561.12V295.85H538.93Zm0,332.9h-22.2v22.19h22.2Zm-22.2,155.35h22.2V739.72h-22.2Zm44.39-244.13V473.4h22.19V451.2H516.73v66.58h22.2V540h22.19Zm-22.19,66.58h22.19v22.2h44.39V540H561.12v22.19H538.93V540h-22.2v44.38Zm44.38-377.28H561.12v22.19h22.19Zm-22.19,66.58v22.19h22.19V273.66ZM605.51,140.5H627.7V73.92H561.12V140.5h44.39Zm-22.2,155.35v22.2h22.2v-22.2Zm0,221.93h22.2V473.4h-22.2Zm22.2-488.25H516.73V96.11h22.2V51.73h111V29.53H605.51Zm0,133.16H538.93V96.11h-22.2v88.78H649.89v-22.2H605.51Zm0,111H627.7V251.47H605.51Zm0,66.58H627.7V318.05H605.51ZM627.7,717.52V695.33H605.51v22.19Zm0-466h22.19V207.08H627.7Zm0,66.58h22.19v-22.2H627.7Zm0,66.58h22.19V340.24H627.7Zm0,44.38H605.51V451.2h44.38V406.82H627.7Zm0,88.77v44.39h22.19V495.59H627.7Zm0,88.78H605.51v22.19H627.7v44.39h22.19V584.36H627.7Zm0,133.16H583.31v-22.2h0V695.33h22.2V650.94h-22.2V606.56H561.12v44.38H516.73v22.2h44.39v44.38h0v44.39h88.77V717.52H627.7ZM649.89,29.53V96.11h22.2V29.53Zm0,155.36h22.2V96.11h-22.2Zm0,111h22.2V229.27h-22.2Zm0,66.58h22.2V318.05h-22.2Zm0,88.77h22.2V406.82h-22.2Zm0,66.58v88.78h22.2v-111h-22.2Zm0,133.16h22.2V606.56h-22.2Zm0,66.58h22.2V673.14h-22.2Zm0,44.39h22.2V739.72h-22.2Z" transform="translate(60.29 -29.53)"/></svg>